# xmcd CD database file generated by libcdaudio 0.99.6
# 
# Track frame offsets:
#       150
#       13330
#       29892
#       48560
#       65462
#       87403
#       100005
#       108620
#       131335
#       147488
#       153936
#       170574
# 
# Disc length: 2629 seconds
# 
# Revision: 1
# Processed by: cddbd v1.5.2PL0 Copyright (c) Steve Scherf et al.
# Submitted via: libcdaudio 0.99.6
# 
DISCID=ab0a430c
DTITLE=Fred Smith and The Spooky Men's Chorale - Urban Sea Shanties
DYEAR=1900
DGENRE=
TTITLE0=Angel of Birmingham
TTITLE1=Deep Deep River
TTITLE2=Say a Prayer
TTITLE3=Bonnie Boat
TTITLE4=Seven Ways
TTITLE5=Ding Dong
TTITLE6=Die Alone
TTITLE7=Falzibad
TTITLE8=Tension
TTITLE9=Shhh
TTITLE10=Mr Circle
TTITLE11=A Woman Like You
EXTD=
EXTT0=
EXTT1=
EXTT2=
EXTT3=
EXTT4=
EXTT5=
EXTT6=
EXTT7=
EXTT8=
EXTT9=
EXTT10=
EXTT11=
PLAYORDER=
